<?xml version="1.0" encoding="UTF-8" standalone="no"?>
<svg
   xmlns:dc="http://purl.org/dc/elements/1.1/"
   xmlns:cc="http://creativecommons.org/ns#"
   xmlns:rdf="http://www.w3.org/1999/02/22-rdf-syntax-ns#"
   xmlns:svg="http://www.w3.org/2000/svg"
   xmlns="http://www.w3.org/2000/svg"
   xmlns:sodipodi="http://sodipodi.sourceforge.net/DTD/sodipodi-0.dtd"
   xmlns:inkscape="http://www.inkscape.org/namespaces/inkscape"
   width="131.66725mm"
   height="131.66786mm"
   viewBox="0 0 131.66725 131.66786"
   version="1.1"
   id="svg1362"
   inkscape:version="1.0.1 (3bc2e813f5, 2020-09-07)"
   sodipodi:docname="dessin.svg">
  <defs
     id="defs1356">
    <linearGradient
       id="Gradient_1"
       y2="67.837997"
       gradientUnits="userSpaceOnUse"
       x2="313.01001"
       y1="581.58002"
       x1="313.01001"
       gradientTransform="matrix(0.26458333,0,0,0.26458333,-270.48732,-217.21845)">
      <stop
         stop-color="#555555"
         offset="0"
         id="stop131" />
      <stop
         stop-color="#FFFFFF"
         offset=".207"
         id="stop133" />
      <stop
         stop-color="#6A6A6A"
         offset=".504"
         id="stop135" />
      <stop
         stop-color="#FFFFFF"
         offset="1"
         id="stop137" />
    </linearGradient>
    <linearGradient
       id="Gradient_2"
       y2="116.44"
       gradientUnits="userSpaceOnUse"
       x2="313.66"
       y1="536.82001"
       x1="313.66"
       gradientTransform="matrix(0.26458333,0,0,0.26458333,-270.48732,-217.21845)">
      <stop
         stop-color="#FFFFFF"
         offset="0"
         id="stop140" />
      <stop
         stop-color="#6A6A6A"
         offset=".496"
         id="stop142" />
      <stop
         stop-color="#FFFFFF"
         offset=".793"
         id="stop144" />
      <stop
         stop-color="#555555"
         offset="1"
         id="stop146" />
    </linearGradient>
    <radialGradient
       id="Gradient_3"
       gradientUnits="userSpaceOnUse"
       cy="182.27"
       cx="320.67999"
       r="270.70999"
       gradientTransform="matrix(0.26458333,0,0,0.26458333,-270.48732,-217.21845)">
      <stop
         stop-color="#AAAAAA"
         offset=".007"
         id="stop149" />
      <stop
         stop-color="#000000"
         offset="1"
         id="stop151" />
    </radialGradient>
    <linearGradient
       id="Gradient_4"
       y2="360.23001"
       gradientUnits="userSpaceOnUse"
       x2="319.78"
       y1="156.45"
       x1="319.78"
       gradientTransform="matrix(0.26458333,0,0,0.26458333,-270.48732,-217.21845)">
      <stop
         stop-color="#DDDDDD"
         stop-opacity=".866"
         offset=".001"
         id="stop154" />
      <stop
         stop-color="#000000"
         stop-opacity="0"
         offset="1"
         id="stop156" />
    </linearGradient>
  </defs>
  <sodipodi:namedview
     id="base"
     pagecolor="#ffffff"
     bordercolor="#666666"
     borderopacity="1.0"
     inkscape:pageopacity="0.0"
     inkscape:pageshadow="2"
     inkscape:zoom="0.35"
     inkscape:cx="1354.5343"
     inkscape:cy="1294.5354"
     inkscape:document-units="mm"
     inkscape:current-layer="layer1"
     inkscape:document-rotation="0"
     showgrid="false"
     fit-margin-top="0"
     fit-margin-left="0"
     fit-margin-right="0"
     fit-margin-bottom="0"
     inkscape:window-width="1575"
     inkscape:window-height="1061"
     inkscape:window-x="78"
     inkscape:window-y="0"
     inkscape:window-maximized="0" />
  <metadata
     id="metadata1359">
    <rdf:RDF>
      <cc:Work
         rdf:about="">
        <dc:format>image/svg+xml</dc:format>
        <dc:type
           rdf:resource="http://purl.org/dc/dcmitype/StillImage" />
        <dc:title></dc:title>
      </cc:Work>
    </rdf:RDF>
  </metadata>
  <g
     inkscape:label="Calque 1"
     inkscape:groupmode="layer"
     id="layer1"
     transform="translate(252.55386,194.34583)">
    <path
       d="m -186.72024,-62.67797 c -36.35904,0 -65.83362,-29.47458 -65.83362,-65.83362 2.6e-4,-36.35904 29.47458,-65.83363 65.83362,-65.83363 36.35905,8e-4 65.83363,29.47459 65.83363,65.83363 0,36.35904 -29.47458,65.83362 -65.83363,65.83362 z"
       fill="url(#Gradient_1)"
       id="path2"
       style="fill:url(#Gradient_1);stroke-width:0.264583" />
    <path
       d="m -186.72024,-74.64243 c -29.74975,0 -53.86917,-24.116767 -53.86917,-53.86916 0,-29.7524 24.11942,-53.86917 53.86917,-53.86917 29.7524,0 53.86917,24.11677 53.86917,53.86917 0,29.752393 -24.11677,53.86916 -53.86917,53.86916 z"
       fill="url(#Gradient_2)"
       id="path4"
       style="fill:url(#Gradient_2);stroke-width:0.264583" />
    <path
       d="m -186.72024,-78.59266 c -27.56958,0 -49.91894,-22.34935 -49.91894,-49.91893 0,-27.56959 22.34936,-49.91894 49.91894,-49.91894 27.56958,0 49.91894,22.34935 49.91894,49.91894 0,27.56958 -22.34936,49.91893 -49.91894,49.91893 z"
       fill="#000000"
       id="path6"
       style="stroke-width:0.264583" />
    <path
       opacity="0.65"
       d="m -186.72024,-81.82057 c -25.78629,0 -46.69102,-20.90473 -46.69102,-46.69102 0,-25.78629 20.90473,-46.69102 46.69102,-46.69102 25.78629,0 46.69367,20.90473 46.69367,46.69102 0,25.78629 -20.90738,46.69102 -46.69367,46.69102 z"
       fill="url(#Gradient_3)"
       id="path8"
       style="fill:url(#Gradient_3);stroke-width:0.264583" />
    <path
       opacity="0.29"
       d="m -187.14093,-194.34442 c 3.91055,-0.0288 7.80257,0.38523 11.6549,1.02817 17.91758,3.19643 33.99102,14.0073 43.80707,29.32112 3.05064,4.69636 5.40808,9.80017 7.15168,15.11565 -3.08504,3.83381 -6.79979,7.14375 -10.79764,10.00125 -0.73819,0.52916 -1.50284,1.02394 -2.25425,1.53458 v -0.005 c -0.43657,-2.43152 -1.05304,-4.83129 -1.84415,-7.17285 -3.8735,-11.45117 -11.97239,-21.2725 -22.4499,-27.29442 -7.76023,-4.46352 -15.92262,-6.50081 -24.84702,-6.61458 -9.50383,0.005 -18.90183,2.73579 -26.90548,7.86341 -9.48796,6.08278 -16.77723,15.36701 -20.39144,26.0456 -0.84137,2.48972 -1.5187,5.06412 -1.91822,7.66233 -5.15409,-3.2729 -9.98697,-7.22313 -13.81072,-12.01208 0.89217,-2.58234 1.02552,-3.1168 2.17593,-5.75998 5.6896,-13.07571 15.37864,-23.82044 27.65954,-30.99065 7.48771,-4.30477 15.81679,-7.10591 24.384,-8.19362 2.21721,-0.32226 4.45294,-0.39687 6.68602,-0.50747 z"
       fill="#ffffff"
       id="path10"
       style="stroke-width:0.264583" />
    <path
       opacity="0.97"
       d="m -187.13563,-175.20261 c 13.5837,0.0529 26.40012,5.85258 35.306,16.13429 4.95564,5.72294 8.48783,12.6365 10.1891,20.01308 0.42863,1.85473 0.4445,2.14048 0.70379,3.82323 -11.31358,6.46906 -24.13794,10.0039 -37.084,11.12044 -3.03477,0.26194 -6.06954,0.36512 -9.11489,0.39158 -14.22665,-0.0503 -28.5803,-2.76489 -41.43905,-8.98525 -2.33098,-1.12712 -2.68023,-1.35996 -4.75985,-2.52677 2.29658,-15.73477 12.4804,-29.29202 26.98221,-35.84575 4.20423,-1.90235 8.69156,-3.16971 13.26885,-3.74914 2.09815,-0.26723 2.62731,-0.254 4.74134,-0.35984 z"
       fill="url(#Gradient_4)"
       id="path12"
       style="fill:url(#Gradient_4);stroke-width:0.264583" />
    <path
       opacity="0.1"
       d="m -186.72024,-175.20261 c 13.58636,0.0529 26.40013,5.85258 35.306,16.13429 4.95565,5.72294 8.48784,12.6365 10.19175,20.01308 0.42598,1.85473 0.4445,2.14048 0.70115,3.82323 -11.31358,6.46906 -24.13794,10.0039 -37.08136,11.12044 -3.03477,0.26194 -6.07218,0.36512 -9.11754,0.39158 -14.22664,-0.0503 -28.57764,-2.76489 -41.43904,-8.98525 -2.33098,-1.12712 -2.68023,-1.35996 -4.75985,-2.52677 2.29922,-15.73477 12.48039,-29.29202 26.98485,-35.84575 4.20423,-1.90235 8.68892,-3.16971 13.26621,-3.74914 2.10079,-0.26723 2.62731,-0.254 4.74398,-0.35984 z"
       fill="#ffffff"
       id="path14"
       style="stroke-width:0.264583" />
  </g>
</svg>
